<svg xmlns="http://www.w3.org/2000/svg" xmlns:xlink="http://www.w3.org/1999/xlink" width="375" viewBox="0 0 375 375" height="375" version="1.0"><defs><g id="d"><path d="M 60.6875 -76.921875 C 65.832031 -76.921875 70.316406 -77.5625 74.140625 -78.84375 C 77.960938 -80.132812 81.109375 -81.910156 83.578125 -84.171875 C 86.046875 -86.441406 87.890625 -89.132812 89.109375 -92.25 C 90.328125 -95.363281 90.9375 -98.78125 90.9375 -102.5 C 90.9375 -109.9375 88.484375 -115.648438 83.578125 -119.640625 C 78.671875 -123.640625 71.175781 -125.640625 61.09375 -125.640625 L 43.640625 -125.640625 L 43.640625 -76.921875 Z M 130.921875 0 L 106.25 0 C 101.582031 0 98.203125 -1.828125 96.109375 -5.484375 L 65.25 -52.46875 C 64.101562 -54.226562 62.835938 -55.476562 61.453125 -56.21875 C 60.066406 -56.96875 58.019531 -57.34375 55.3125 -57.34375 L 43.640625 -57.34375 L 43.640625 0 L 16.34375 0 L 16.34375 -146.75 L 61.09375 -146.75 C 71.039062 -146.75 79.582031 -145.71875 86.71875 -143.65625 C 93.851562 -141.59375 99.703125 -138.695312 104.265625 -134.96875 C 108.835938 -131.25 112.207031 -126.800781 114.375 -121.625 C 116.539062 -116.445312 117.625 -110.75 117.625 -104.53125 C 117.625 -99.59375 116.894531 -94.921875 115.4375 -90.515625 C 113.976562 -86.117188 111.878906 -82.128906 109.140625 -78.546875 C 106.398438 -74.960938 103.015625 -71.816406 98.984375 -69.109375 C 94.960938 -66.398438 90.382812 -64.269531 85.25 -62.71875 C 87.007812 -61.695312 88.628906 -60.492188 90.109375 -59.109375 C 91.597656 -57.722656 92.953125 -56.082031 94.171875 -54.1875 Z M 130.921875 0"/></g><g id="e"><path d="M 43.78125 -125.140625 L 43.78125 -81.65625 L 98.828125 -81.65625 L 98.828125 -59.828125 L 43.78125 -59.828125 L 43.78125 0 L 16.359375 0 L 16.359375 -146.875 L 108.984375 -146.875 L 108.984375 -125.140625 Z M 43.78125 -125.140625"/></g><g id="f"><path d="M 8.90625 0 L 6.5 -3.390625 C 6.226562 -3.359375 5.945312 -3.34375 5.65625 -3.34375 L 2.828125 -3.34375 L 2.828125 0 L 1.71875 0 L 1.71875 -10.53125 L 5.65625 -10.53125 C 7 -10.53125 8.050781 -10.207031 8.8125 -9.5625 C 9.582031 -8.925781 9.96875 -8.046875 9.96875 -6.921875 C 9.96875 -6.097656 9.757812 -5.398438 9.34375 -4.828125 C 8.925781 -4.265625 8.328125 -3.859375 7.546875 -3.609375 L 10.125 0 Z M 5.625 -4.28125 C 6.664062 -4.28125 7.460938 -4.507812 8.015625 -4.96875 C 8.566406 -5.4375 8.84375 -6.085938 8.84375 -6.921875 C 8.84375 -7.773438 8.566406 -8.425781 8.015625 -8.875 C 7.460938 -9.332031 6.664062 -9.5625 5.625 -9.5625 L 2.828125 -9.5625 L 2.828125 -4.28125 Z M 5.625 -4.28125"/></g><g id="g"><path d="M 6.3125 0.09375 C 5.269531 0.09375 4.328125 -0.140625 3.484375 -0.609375 C 2.640625 -1.078125 1.976562 -1.71875 1.5 -2.53125 C 1.019531 -3.34375 0.78125 -4.253906 0.78125 -5.265625 C 0.78125 -6.273438 1.019531 -7.1875 1.5 -8 C 1.976562 -8.8125 2.640625 -9.453125 3.484375 -9.921875 C 4.328125 -10.390625 5.269531 -10.625 6.3125 -10.625 C 7.363281 -10.625 8.304688 -10.390625 9.140625 -9.921875 C 9.972656 -9.460938 10.628906 -8.820312 11.109375 -8 C 11.597656 -7.1875 11.84375 -6.273438 11.84375 -5.265625 C 11.84375 -4.253906 11.597656 -3.335938 11.109375 -2.515625 C 10.628906 -1.703125 9.972656 -1.0625 9.140625 -0.59375 C 8.304688 -0.132812 7.363281 0.09375 6.3125 0.09375 Z M 6.3125 -0.90625 C 7.144531 -0.90625 7.894531 -1.09375 8.5625 -1.46875 C 9.238281 -1.84375 9.769531 -2.363281 10.15625 -3.03125 C 10.539062 -3.695312 10.734375 -4.441406 10.734375 -5.265625 C 10.734375 -6.085938 10.539062 -6.832031 10.15625 -7.5 C 9.769531 -8.164062 9.238281 -8.6875 8.5625 -9.0625 C 7.894531 -9.4375 7.144531 -9.625 6.3125 -9.625 C 5.488281 -9.625 4.738281 -9.4375 4.0625 -9.0625 C 3.382812 -8.6875 2.847656 -8.164062 2.453125 -7.5 C 2.066406 -6.832031 1.875 -6.085938 1.875 -5.265625 C 1.875 -4.441406 2.066406 -3.695312 2.453125 -3.03125 C 2.847656 -2.363281 3.382812 -1.84375 4.0625 -1.46875 C 4.738281 -1.09375 5.488281 -0.90625 6.3125 -0.90625 Z M 6.3125 -0.90625"/></g><g id="h"><path d="M 4.625 0.09375 C 3.84375 0.09375 3.09375 -0.03125 2.375 -0.28125 C 1.65625 -0.53125 1.097656 -0.863281 0.703125 -1.28125 L 1.140625 -2.140625 C 1.523438 -1.753906 2.03125 -1.441406 2.65625 -1.203125 C 3.289062 -0.972656 3.945312 -0.859375 4.625 -0.859375 C 5.5625 -0.859375 6.265625 -1.03125 6.734375 -1.375 C 7.210938 -1.71875 7.453125 -2.164062 7.453125 -2.71875 C 7.453125 -3.144531 7.320312 -3.484375 7.0625 -3.734375 C 6.8125 -3.984375 6.5 -4.175781 6.125 -4.3125 C 5.75 -4.445312 5.234375 -4.59375 4.578125 -4.75 C 3.785156 -4.957031 3.148438 -5.148438 2.671875 -5.328125 C 2.203125 -5.515625 1.800781 -5.796875 1.46875 -6.171875 C 1.132812 -6.554688 0.96875 -7.078125 0.96875 -7.734375 C 0.96875 -8.265625 1.109375 -8.75 1.390625 -9.1875 C 1.671875 -9.625 2.097656 -9.972656 2.671875 -10.234375 C 3.253906 -10.492188 3.976562 -10.625 4.84375 -10.625 C 5.445312 -10.625 6.035156 -10.539062 6.609375 -10.375 C 7.191406 -10.207031 7.691406 -9.976562 8.109375 -9.6875 L 7.734375 -8.796875 C 7.296875 -9.085938 6.820312 -9.304688 6.3125 -9.453125 C 5.8125 -9.597656 5.320312 -9.671875 4.84375 -9.671875 C 3.914062 -9.671875 3.21875 -9.492188 2.75 -9.140625 C 2.289062 -8.785156 2.0625 -8.328125 2.0625 -7.765625 C 2.0625 -7.335938 2.1875 -6.992188 2.4375 -6.734375 C 2.695312 -6.484375 3.019531 -6.289062 3.40625 -6.15625 C 3.789062 -6.019531 4.3125 -5.875 4.96875 -5.71875 C 5.738281 -5.53125 6.359375 -5.34375 6.828125 -5.15625 C 7.304688 -4.96875 7.710938 -4.6875 8.046875 -4.3125 C 8.378906 -3.9375 8.546875 -3.425781 8.546875 -2.78125 C 8.546875 -2.25 8.398438 -1.765625 8.109375 -1.328125 C 7.828125 -0.890625 7.390625 -0.539062 6.796875 -0.28125 C 6.203125 -0.03125 5.476562 0.09375 4.625 0.09375 Z M 4.625 0.09375"/></g><g id="i"><path d="M 9.15625 -0.96875 L 9.15625 0 L 1.71875 0 L 1.71875 -10.53125 L 8.9375 -10.53125 L 8.9375 -9.5625 L 2.828125 -9.5625 L 2.828125 -5.828125 L 8.28125 -5.828125 L 8.28125 -4.875 L 2.828125 -4.875 L 2.828125 -0.96875 Z M 9.15625 -0.96875"/></g><g id="j"><path d="M 1.71875 -10.53125 L 2.828125 -10.53125 L 2.828125 -0.96875 L 8.734375 -0.96875 L 8.734375 0 L 1.71875 0 Z M 1.71875 -10.53125"/></g><g id="k"><path d="M 8.328125 -2.8125 L 2.453125 -2.8125 L 1.1875 0 L 0.03125 0 L 4.84375 -10.53125 L 5.9375 -10.53125 L 10.765625 0 L 9.578125 0 Z M 7.921875 -3.71875 L 5.390625 -9.375 L 2.859375 -3.71875 Z M 7.921875 -3.71875"/></g><g id="t"><path d="M 1.71875 -10.53125 L 6 -10.53125 C 7.113281 -10.53125 8.097656 -10.304688 8.953125 -9.859375 C 9.804688 -9.410156 10.46875 -8.785156 10.9375 -7.984375 C 11.40625 -7.191406 11.640625 -6.285156 11.640625 -5.265625 C 11.640625 -4.242188 11.40625 -3.332031 10.9375 -2.53125 C 10.46875 -1.738281 9.804688 -1.117188 8.953125 -0.671875 C 8.097656 -0.222656 7.113281 0 6 0 L 1.71875 0 Z M 5.9375 -0.96875 C 6.863281 -0.96875 7.671875 -1.148438 8.359375 -1.515625 C 9.054688 -1.878906 9.59375 -2.382812 9.96875 -3.03125 C 10.351562 -3.675781 10.546875 -4.421875 10.546875 -5.265625 C 10.546875 -6.109375 10.351562 -6.851562 9.96875 -7.5 C 9.59375 -8.144531 9.054688 -8.648438 8.359375 -9.015625 C 7.671875 -9.378906 6.863281 -9.5625 5.9375 -9.5625 L 2.828125 -9.5625 L 2.828125 -0.96875 Z M 5.9375 -0.96875"/></g><g id="u"><path d="M 10.46875 -10.53125 L 5.8125 0 L 4.703125 0 L 0.046875 -10.53125 L 1.25 -10.53125 L 5.28125 -1.390625 L 9.34375 -10.53125 Z M 10.46875 -10.53125"/></g><g id="v"><path d="M 5.65625 -10.53125 C 7 -10.53125 8.050781 -10.207031 8.8125 -9.5625 C 9.582031 -8.925781 9.96875 -8.046875 9.96875 -6.921875 C 9.96875 -5.796875 9.582031 -4.914062 8.8125 -4.28125 C 8.050781 -3.644531 7 -3.328125 5.65625 -3.328125 L 2.828125 -3.328125 L 2.828125 0 L 1.71875 0 L 1.71875 -10.53125 Z M 5.625 -4.296875 C 6.664062 -4.296875 7.460938 -4.523438 8.015625 -4.984375 C 8.566406 -5.441406 8.84375 -6.085938 8.84375 -6.921875 C 8.84375 -7.773438 8.566406 -8.425781 8.015625 -8.875 C 7.460938 -9.332031 6.664062 -9.5625 5.625 -9.5625 L 2.828125 -9.5625 L 2.828125 -4.296875 Z M 5.625 -4.296875"/></g><g id="l"><path d="M -9.5625 -2.828125 L -5.4375 -2.828125 L -5.4375 -8.28125 L -4.46875 -8.28125 L -4.46875 -2.828125 L 0 -2.828125 L 0 -1.71875 L -10.53125 -1.71875 L -10.53125 -8.9375 L -9.5625 -8.9375 Z M -9.5625 -2.828125"/></g><g id="m"><path d="M -0.96875 -9.15625 L 0 -9.15625 L 0 -1.71875 L -10.53125 -1.71875 L -10.53125 -8.9375 L -9.5625 -8.9375 L -9.5625 -2.828125 L -5.828125 -2.828125 L -5.828125 -8.28125 L -4.875 -8.28125 L -4.875 -2.828125 L -0.96875 -2.828125 Z M -0.96875 -9.15625"/></g><g id="n"><path d="M 0 -8.90625 L -3.390625 -6.5 C -3.359375 -6.226562 -3.34375 -5.945312 -3.34375 -5.65625 L -3.34375 -2.828125 L 0 -2.828125 L 0 -1.71875 L -10.53125 -1.71875 L -10.53125 -5.65625 C -10.53125 -7 -10.207031 -8.050781 -9.5625 -8.8125 C -8.925781 -9.582031 -8.046875 -9.96875 -6.921875 -9.96875 C -6.097656 -9.96875 -5.398438 -9.757812 -4.828125 -9.34375 C -4.265625 -8.925781 -3.859375 -8.328125 -3.609375 -7.546875 L 0 -10.125 Z M -4.28125 -5.625 C -4.28125 -6.664062 -4.507812 -7.460938 -4.96875 -8.015625 C -5.4375 -8.566406 -6.085938 -8.84375 -6.921875 -8.84375 C -7.773438 -8.84375 -8.425781 -8.566406 -8.875 -8.015625 C -9.332031 -7.460938 -9.5625 -6.664062 -9.5625 -5.625 L -9.5625 -2.828125 L -4.28125 -2.828125 Z M -4.28125 -5.625"/></g><g id="o"><path d="M -2.8125 -8.328125 L -2.8125 -2.453125 L 0 -1.1875 L 0 -0.03125 L -10.53125 -4.84375 L -10.53125 -5.9375 L 0 -10.765625 L 0 -9.578125 Z M -3.71875 -7.921875 L -9.375 -5.390625 L -3.71875 -2.859375 Z M -3.71875 -7.921875"/></g><g id="p"><path d="M -10.53125 -10.515625 L 0 -10.515625 L 0 -9.59375 L -8.546875 -2.828125 L 0 -2.828125 L 0 -1.71875 L -10.53125 -1.71875 L -10.53125 -2.640625 L -1.984375 -9.421875 L -10.53125 -9.421875 Z M -10.53125 -10.515625"/></g><g id="q"><path d="M -10.53125 -1.71875 L -10.53125 -6 C -10.53125 -7.113281 -10.304688 -8.097656 -9.859375 -8.953125 C -9.410156 -9.804688 -8.785156 -10.46875 -7.984375 -10.9375 C -7.191406 -11.40625 -6.285156 -11.640625 -5.265625 -11.640625 C -4.242188 -11.640625 -3.332031 -11.40625 -2.53125 -10.9375 C -1.738281 -10.46875 -1.117188 -9.804688 -0.671875 -8.953125 C -0.222656 -8.097656 0 -7.113281 0 -6 L 0 -1.71875 Z M -0.96875 -5.9375 C -0.96875 -6.863281 -1.148438 -7.671875 -1.515625 -8.359375 C -1.878906 -9.054688 -2.382812 -9.59375 -3.03125 -9.96875 C -3.675781 -10.351562 -4.421875 -10.546875 -5.265625 -10.546875 C -6.109375 -10.546875 -6.851562 -10.351562 -7.5 -9.96875 C -8.144531 -9.59375 -8.648438 -9.054688 -9.015625 -8.359375 C -9.378906 -7.671875 -9.5625 -6.863281 -9.5625 -5.9375 L -9.5625 -2.828125 L -0.96875 -2.828125 Z M -0.96875 -5.9375"/></g><g id="r"><path d="M -10.53125 -1.71875 L -10.53125 -2.828125 L 0 -2.828125 L 0 -1.71875 Z M -10.53125 -1.71875"/></g><g id="s"><path d="M 0.09375 -6.3125 C 0.09375 -5.269531 -0.140625 -4.328125 -0.609375 -3.484375 C -1.078125 -2.640625 -1.71875 -1.976562 -2.53125 -1.5 C -3.34375 -1.019531 -4.253906 -0.78125 -5.265625 -0.78125 C -6.273438 -0.78125 -7.1875 -1.019531 -8 -1.5 C -8.8125 -1.976562 -9.453125 -2.640625 -9.921875 -3.484375 C -10.390625 -4.328125 -10.625 -5.269531 -10.625 -6.3125 C -10.625 -7.363281 -10.390625 -8.304688 -9.921875 -9.140625 C -9.460938 -9.972656 -8.820312 -10.628906 -8 -11.109375 C -7.1875 -11.597656 -6.273438 -11.84375 -5.265625 -11.84375 C -4.253906 -11.84375 -3.335938 -11.597656 -2.515625 -11.109375 C -1.703125 -10.628906 -1.0625 -9.972656 -0.59375 -9.140625 C -0.132812 -8.304688 0.09375 -7.363281 0.09375 -6.3125 Z M -0.90625 -6.3125 C -0.90625 -7.144531 -1.09375 -7.894531 -1.46875 -8.5625 C -1.84375 -9.238281 -2.363281 -9.769531 -3.03125 -10.15625 C -3.695312 -10.539062 -4.441406 -10.734375 -5.265625 -10.734375 C -6.085938 -10.734375 -6.832031 -10.539062 -7.5 -10.15625 C -8.164062 -9.769531 -8.6875 -9.238281 -9.0625 -8.5625 C -9.4375 -7.894531 -9.625 -7.144531 -9.625 -6.3125 C -9.625 -5.488281 -9.4375 -4.738281 -9.0625 -4.0625 C -8.6875 -3.382812 -8.164062 -2.847656 -7.5 -2.453125 C -6.832031 -2.066406 -6.085938 -1.875 -5.265625 -1.875 C -4.441406 -1.875 -3.695312 -2.066406 -3.03125 -2.453125 C -2.363281 -2.847656 -1.84375 -3.382812 -1.46875 -4.0625 C -1.09375 -4.738281 -0.90625 -5.488281 -0.90625 -6.3125 Z M -0.90625 -6.3125"/></g><g id="w"><path d="M 0.09375 -5.953125 C 0.09375 -4.585938 -0.296875 -3.523438 -1.078125 -2.765625 C -1.859375 -2.003906 -3 -1.625 -4.5 -1.625 L -10.53125 -1.625 L -10.53125 -2.734375 L -4.546875 -2.734375 C -3.316406 -2.734375 -2.398438 -3.007812 -1.796875 -3.5625 C -1.203125 -4.113281 -0.90625 -4.910156 -0.90625 -5.953125 C -0.90625 -7.003906 -1.203125 -7.804688 -1.796875 -8.359375 C -2.398438 -8.910156 -3.316406 -9.1875 -4.546875 -9.1875 L -10.53125 -9.1875 L -10.53125 -10.28125 L -4.5 -10.28125 C -3 -10.28125 -1.859375 -9.898438 -1.078125 -9.140625 C -0.296875 -8.378906 0.09375 -7.316406 0.09375 -5.953125 Z M 0.09375 -5.953125"/></g><g id="x"><path d="M 0 -8.328125 L -4.640625 -4.921875 L 0 -1.53125 L 0 -0.25 L -5.421875 -4.265625 L -10.53125 -0.515625 L -10.53125 -1.796875 L -6.234375 -4.96875 L -10.53125 -8.125 L -10.53125 -9.328125 L -5.453125 -5.59375 L 0 -9.609375 Z M 0 -8.328125"/></g><g id="z"><path d="M 0.09375 -4.625 C 0.09375 -3.84375 -0.03125 -3.09375 -0.28125 -2.375 C -0.53125 -1.65625 -0.863281 -1.097656 -1.28125 -0.703125 L -2.140625 -1.140625 C -1.753906 -1.523438 -1.441406 -2.03125 -1.203125 -2.65625 C -0.972656 -3.289062 -0.859375 -3.945312 -0.859375 -4.625 C -0.859375 -5.5625 -1.03125 -6.265625 -1.375 -6.734375 C -1.71875 -7.210938 -2.164062 -7.453125 -2.71875 -7.453125 C -3.144531 -7.453125 -3.484375 -7.320312 -3.734375 -7.0625 C -3.984375 -6.8125 -4.175781 -6.5 -4.3125 -6.125 C -4.445312 -5.75 -4.59375 -5.234375 -4.75 -4.578125 C -4.957031 -3.785156 -5.148438 -3.148438 -5.328125 -2.671875 C -5.515625 -2.203125 -5.796875 -1.800781 -6.171875 -1.46875 C -6.554688 -1.132812 -7.078125 -0.96875 -7.734375 -0.96875 C -8.265625 -0.96875 -8.75 -1.109375 -9.1875 -1.390625 C -9.625 -1.671875 -9.972656 -2.097656 -10.234375 -2.671875 C -10.492188 -3.253906 -10.625 -3.976562 -10.625 -4.84375 C -10.625 -5.445312 -10.539062 -6.035156 -10.375 -6.609375 C -10.207031 -7.191406 -9.976562 -7.691406 -9.6875 -8.109375 L -8.796875 -7.734375 C -9.085938 -7.296875 -9.304688 -6.820312 -9.453125 -6.3125 C -9.597656 -5.8125 -9.671875 -5.320312 -9.671875 -4.84375 C -9.671875 -3.914062 -9.492188 -3.21875 -9.140625 -2.75 C -8.785156 -2.289062 -8.328125 -2.0625 -7.765625 -2.0625 C -7.335938 -2.0625 -6.992188 -2.1875 -6.734375 -2.4375 C -6.484375 -2.695312 -6.289062 -3.019531 -6.15625 -3.40625 C -6.019531 -3.789062 -5.875 -4.3125 -5.71875 -4.96875 C -5.53125 -5.738281 -5.34375 -6.359375 -5.15625 -6.828125 C -4.96875 -7.304688 -4.6875 -7.710938 -4.3125 -8.046875 C -3.9375 -8.378906 -3.425781 -8.546875 -2.78125 -8.546875 C -2.25 -8.546875 -1.765625 -8.398438 -1.328125 -8.109375 C -0.890625 -7.828125 -0.539062 -7.390625 -0.28125 -6.796875 C -0.03125 -6.203125 0.09375 -5.476562 0.09375 -4.625 Z M 0.09375 -4.625"/></g><g id="A"><path d="M -5.265625 -9.140625 L -5.265625 -10.203125 L -1.25 -10.203125 C -0.820312 -9.710938 -0.488281 -9.128906 -0.25 -8.453125 C -0.0195312 -7.785156 0.09375 -7.078125 0.09375 -6.328125 C 0.09375 -5.273438 -0.132812 -4.328125 -0.59375 -3.484375 C -1.0625 -2.648438 -1.703125 -1.988281 -2.515625 -1.5 C -3.335938 -1.019531 -4.253906 -0.78125 -5.265625 -0.78125 C -6.273438 -0.78125 -7.1875 -1.019531 -8 -1.5 C -8.820312 -1.988281 -9.460938 -2.648438 -9.921875 -3.484375 C -10.390625 -4.328125 -10.625 -5.28125 -10.625 -6.34375 C -10.625 -7.144531 -10.492188 -7.878906 -10.234375 -8.546875 C -9.984375 -9.222656 -9.609375 -9.796875 -9.109375 -10.265625 L -8.390625 -9.5625 C -9.210938 -8.738281 -9.625 -7.679688 -9.625 -6.390625 C -9.625 -5.535156 -9.4375 -4.765625 -9.0625 -4.078125 C -8.6875 -3.390625 -8.164062 -2.847656 -7.5 -2.453125 C -6.832031 -2.066406 -6.085938 -1.875 -5.265625 -1.875 C -4.441406 -1.875 -3.695312 -2.066406 -3.03125 -2.453125 C -2.375 -2.847656 -1.851562 -3.382812 -1.46875 -4.0625 C -1.09375 -4.75 -0.90625 -5.519531 -0.90625 -6.375 C -0.90625 -7.457031 -1.175781 -8.378906 -1.71875 -9.140625 Z M -5.265625 -9.140625"/></g><clipPath id="a"><path d="M 15 16 L 359 16 L 359 360 L 15 360 Z M 15 16"/></clipPath><clipPath id="b"><path d="M -65.289062 278.632812 L 278.367188 -65.023438 L 530.804688 187.414062 L 187.148438 531.070312 Z M -65.289062 278.632812"/></clipPath><clipPath id="c"><path d="M -65.289062 278.632812 L 278.367188 -65.023438 L 530.804688 187.414062 L 187.148438 531.070312 Z M -65.289062 278.632812"/></clipPath></defs><g clip-path="url(#a)"><g clip-path="url(#b)"><g clip-path="url(#c)"><path fill="#545454" d="M 15.957031 197.386719 L 15.960938 359.234375 L 63.015625 359.234375 L 74.835938 347.414062 L 27.78125 347.414062 L 27.777344 200.113281 C 27.324219 200.113281 26.980469 200 26.527344 200 C 23.003906 199.207031 19.480469 198.410156 15.957031 197.386719 Z M 195.984375 27.589844 C 195.984375 27.816406 195.871094 27.929688 195.984375 28.042969 C 196.097656 27.929688 196.097656 27.703125 195.984375 27.589844 Z M 210.078125 16.222656 C 210.761719 20.085938 211.101562 24.066406 211.101562 28.15625 L 347.035156 28.160156 L 347.035156 75.214844 L 357.945312 64.300781 L 358.855469 63.394531 L 358.855469 16.339844 Z M 227.589844 359.238281 L 358.976562 359.242188 L 358.972656 227.855469 L 347.152344 239.675781 L 347.15625 347.421875 L 239.410156 347.417969 Z M 227.589844 359.238281"/></g></g></g><g fill="#545454"><use x="64.291" y="235.599" xmlns:xlink="http://www.w3.org/1999/xlink" xlink:href="#d" xlink:type="simple" xlink:actuate="onLoad" xlink:show="embed"/></g><g fill="#545454"><use x="182.57" y="294.613" xmlns:xlink="http://www.w3.org/1999/xlink" xlink:href="#e" xlink:type="simple" xlink:actuate="onLoad" xlink:show="embed"/></g><g><use x="96.417" y="356.984" xmlns:xlink="http://www.w3.org/1999/xlink" xlink:href="#f" xlink:type="simple" xlink:actuate="onLoad" xlink:show="embed"/></g><g><use x="111.25" y="356.984" xmlns:xlink="http://www.w3.org/1999/xlink" xlink:href="#g" xlink:type="simple" xlink:actuate="onLoad" xlink:show="embed"/></g><g><use x="127.828" y="356.984" xmlns:xlink="http://www.w3.org/1999/xlink" xlink:href="#h" xlink:type="simple" xlink:actuate="onLoad" xlink:show="embed"/></g><g><use x="141.037" y="356.984" xmlns:xlink="http://www.w3.org/1999/xlink" xlink:href="#h" xlink:type="simple" xlink:actuate="onLoad" xlink:show="embed"/></g><g><use x="154.245" y="356.984" xmlns:xlink="http://www.w3.org/1999/xlink" xlink:href="#i" xlink:type="simple" xlink:actuate="onLoad" xlink:show="embed"/></g><g><use x="168.266" y="356.984" xmlns:xlink="http://www.w3.org/1999/xlink" xlink:href="#j" xlink:type="simple" xlink:actuate="onLoad" xlink:show="embed"/></g><g><use x="181.083" y="356.984" xmlns:xlink="http://www.w3.org/1999/xlink" xlink:href="#j" xlink:type="simple" xlink:actuate="onLoad" xlink:show="embed"/></g><g><use x="193.9" y="356.984" xmlns:xlink="http://www.w3.org/1999/xlink" xlink:href="#k" xlink:type="simple" xlink:actuate="onLoad" xlink:show="embed"/></g><g><use x="358.882" y="220.024" xmlns:xlink="http://www.w3.org/1999/xlink" xlink:href="#l" xlink:type="simple" xlink:actuate="onLoad" xlink:show="embed"/></g><g><use x="358.882" y="206.545" xmlns:xlink="http://www.w3.org/1999/xlink" xlink:href="#m" xlink:type="simple" xlink:actuate="onLoad" xlink:show="embed"/></g><g><use x="358.882" y="192.524" xmlns:xlink="http://www.w3.org/1999/xlink" xlink:href="#n" xlink:type="simple" xlink:actuate="onLoad" xlink:show="embed"/></g><g><use x="358.882" y="177.691" xmlns:xlink="http://www.w3.org/1999/xlink" xlink:href="#n" xlink:type="simple" xlink:actuate="onLoad" xlink:show="embed"/></g><g><use x="358.882" y="162.858" xmlns:xlink="http://www.w3.org/1999/xlink" xlink:href="#o" xlink:type="simple" xlink:actuate="onLoad" xlink:show="embed"/></g><g><use x="358.882" y="148.116" xmlns:xlink="http://www.w3.org/1999/xlink" xlink:href="#p" xlink:type="simple" xlink:actuate="onLoad" xlink:show="embed"/></g><g><use x="358.882" y="131.929" xmlns:xlink="http://www.w3.org/1999/xlink" xlink:href="#q" xlink:type="simple" xlink:actuate="onLoad" xlink:show="embed"/></g><g><use x="358.882" y="115.547" xmlns:xlink="http://www.w3.org/1999/xlink" xlink:href="#r" xlink:type="simple" xlink:actuate="onLoad" xlink:show="embed"/></g><g><use x="358.882" y="107.046" xmlns:xlink="http://www.w3.org/1999/xlink" xlink:href="#p" xlink:type="simple" xlink:actuate="onLoad" xlink:show="embed"/></g><g><use x="358.882" y="90.859" xmlns:xlink="http://www.w3.org/1999/xlink" xlink:href="#s" xlink:type="simple" xlink:actuate="onLoad" xlink:show="embed"/></g><g><use x="52.22" y="28.888" xmlns:xlink="http://www.w3.org/1999/xlink" xlink:href="#t" xlink:type="simple" xlink:actuate="onLoad" xlink:show="embed"/></g><g><use x="68.602" y="28.888" xmlns:xlink="http://www.w3.org/1999/xlink" xlink:href="#i" xlink:type="simple" xlink:actuate="onLoad" xlink:show="embed"/></g><g><use x="82.622" y="28.888" xmlns:xlink="http://www.w3.org/1999/xlink" xlink:href="#u" xlink:type="simple" xlink:actuate="onLoad" xlink:show="embed"/></g><g><use x="97.079" y="28.888" xmlns:xlink="http://www.w3.org/1999/xlink" xlink:href="#i" xlink:type="simple" xlink:actuate="onLoad" xlink:show="embed"/></g><g><use x="111.1" y="28.888" xmlns:xlink="http://www.w3.org/1999/xlink" xlink:href="#j" xlink:type="simple" xlink:actuate="onLoad" xlink:show="embed"/></g><g><use x="123.917" y="28.888" xmlns:xlink="http://www.w3.org/1999/xlink" xlink:href="#g" xlink:type="simple" xlink:actuate="onLoad" xlink:show="embed"/></g><g><use x="140.495" y="28.888" xmlns:xlink="http://www.w3.org/1999/xlink" xlink:href="#v" xlink:type="simple" xlink:actuate="onLoad" xlink:show="embed"/></g><g><use x="155.253" y="28.888" xmlns:xlink="http://www.w3.org/1999/xlink" xlink:href="#i" xlink:type="simple" xlink:actuate="onLoad" xlink:show="embed"/></g><g><use x="169.274" y="28.888" xmlns:xlink="http://www.w3.org/1999/xlink" xlink:href="#f" xlink:type="simple" xlink:actuate="onLoad" xlink:show="embed"/></g><g><use x="27.535" y="184.193" xmlns:xlink="http://www.w3.org/1999/xlink" xlink:href="#w" xlink:type="simple" xlink:actuate="onLoad" xlink:show="embed"/></g><g><use x="27.535" y="168.322" xmlns:xlink="http://www.w3.org/1999/xlink" xlink:href="#x" xlink:type="simple" xlink:actuate="onLoad" xlink:show="embed"/></g><g><use x="27.535" y="154.497" xmlns:xlink="http://www.w3.org/1999/xlink" xlink:href="#y" xlink:type="simple" xlink:actuate="onLoad" xlink:show="embed"/></g><g><use x="27.535" y="146.599" xmlns:xlink="http://www.w3.org/1999/xlink" xlink:href="#q" xlink:type="simple" xlink:actuate="onLoad" xlink:show="embed"/></g><g><use x="27.535" y="130.216" xmlns:xlink="http://www.w3.org/1999/xlink" xlink:href="#m" xlink:type="simple" xlink:actuate="onLoad" xlink:show="embed"/></g><g><use x="27.535" y="116.196" xmlns:xlink="http://www.w3.org/1999/xlink" xlink:href="#z" xlink:type="simple" xlink:actuate="onLoad" xlink:show="embed"/></g><g><use x="27.535" y="102.987" xmlns:xlink="http://www.w3.org/1999/xlink" xlink:href="#r" xlink:type="simple" xlink:actuate="onLoad" xlink:show="embed"/></g><g><use x="27.535" y="94.487" xmlns:xlink="http://www.w3.org/1999/xlink" xlink:href="#A" xlink:type="simple" xlink:actuate="onLoad" xlink:show="embed"/></g><g><use x="27.535" y="78.902" xmlns:xlink="http://www.w3.org/1999/xlink" xlink:href="#p" xlink:type="simple" xlink:actuate="onLoad" xlink:show="embed"/></g><g><use x="27.535" y="62.715" xmlns:xlink="http://www.w3.org/1999/xlink" xlink:href="#m" xlink:type="simple" xlink:actuate="onLoad" xlink:show="embed"/></g><g><use x="27.535" y="48.694" xmlns:xlink="http://www.w3.org/1999/xlink" xlink:href="#n" xlink:type="simple" xlink:actuate="onLoad" xlink:show="embed"/></g></svg>